<svg style="display: none;" xmlns="http://www.w3.org/2000/svg" xmlns:xlink="http://www.w3.org/1999/xlink">

    <symbol version="1.1" id="loader" x="0px" y="0px" width="34px" height="40px" viewBox="0 0 24 30" style="enable-background:new 0 0 50 50;" xml:space="preserve">
        <rect x="0" y="13" width="4" height="5" fill="#fff">
          <animate attributeName="height" attributeType="XML"
            values="5;21;5"
            begin="0s" dur="0.6s" repeatCount="indefinite" />
          <animate attributeName="y" attributeType="XML"
            values="13; 5; 13"
            begin="0s" dur="0.6s" repeatCount="indefinite" />
        </rect>
        <rect x="10" y="13" width="4" height="5" fill="#fff">
          <animate attributeName="height" attributeType="XML"
            values="5;21;5"
            begin="0.15s" dur="0.6s" repeatCount="indefinite" />
          <animate attributeName="y" attributeType="XML"
            values="13; 5; 13"
            begin="0.15s" dur="0.6s" repeatCount="indefinite" />
        </rect>
        <rect x="20" y="13" width="4" height="5" fill="#fff">
          <animate attributeName="height" attributeType="XML"
            values="5;21;5"
            begin="0.3s" dur="0.6s" repeatCount="indefinite" />
          <animate attributeName="y" attributeType="XML"
            values="13; 5; 13"
            begin="0.3s" dur="0.6s" repeatCount="indefinite" />
        </rect>
    </symbol>

    <symbol id="logo" viewBox="0 0 32 30.3">
		<path fill="#FFAC00" class="st0" d="M15.3,25.3l-8.2-4C5,24.1,3.8,26,3.6,26.9c-0.2,0.7-0.6,1.2-1.2,1.6s-1,0.7-1.3,0.7c-0.7,0-1.1-0.3-1.1-0.9
			c0-0.3,0.4-1.2,1.3-2.8s2.1-3.3,3.6-5.4c-0.9-0.3-1.4-0.6-1.6-0.7c-0.2-0.1-0.3-0.3-0.2-0.7c0-0.3,0.3-0.8,0.8-1.5
			c0.4-0.6,0.7-1,0.9-1.2c0.2-0.2,0.4-0.4,0.7-0.5c0.3-0.1,0.6-0.2,0.9-0.3c0.3,0,1.2-0.2,2.6-0.3c1.1-1.6,2.4-3.2,3.7-5
			s2.4-3.2,3.1-4.2c-2.3,0.3-3.9,0.6-4.8,0.8c-1,0.2-1.8,0.3-2.4,0.5C8,7.2,7.6,7.3,7.3,7.4C7,7.5,6.9,7.6,6.9,7.8
			c0,0.2,0.2,0.3,0.5,0.3c0.3,0.1,0.7,0.1,1.2,0.1c0.5,0,0.9,0,1.1,0.1s0.4,0.1,0.4,0.3c0,0.1-0.2,0.2-0.5,0.3c-0.4,0-1.4,0.1-3,0.1
			C5.7,8.9,4.9,8.9,4.3,9C3.6,9,3.2,9,2.9,9C2.6,9,2.3,8.9,2.2,8.7C2,8.5,1.9,8.2,1.9,7.9c0-0.2,0.1-0.7,0.4-1.4s0.7-1.3,1.2-2
			s1.1-1.2,1.7-1.6C6,2.4,7.1,2,8.7,1.5s3.3-0.8,5.2-1.1S17.7,0,19.6,0c1.1,0,2.2,0.1,3.3,0.2s2.1,0.3,2.9,0.5
			c0.9,0.2,1.6,0.4,2.1,0.6c1.3,0.4,2.3,1.1,3,2C31.6,4.1,32,5.1,32,6.1c0,1-0.2,2-0.5,3c-0.4,1-0.9,1.9-1.6,2.7
			c-0.7,0.8-1.6,1.5-2.6,2c-0.8,0.4-2.1,0.9-3.8,1.3c-1.7,0.5-3.8,0.9-6.2,1.2S12,17.1,9,17.2c2.2,0.8,4.3,1.6,6.3,2.4
			s3.6,1.5,4.9,2.1c1.3,0.6,2.4,1.1,3.1,1.5c1.1,0.6,1.8,1,2.1,1.2c0.3,0.2,0.5,0.6,0.6,1c0.1,0.4,0.2,1,0.2,1.9c0,1-0.1,1.8-0.2,2.3
			s-0.4,0.7-0.8,0.7c-0.1,0-0.5-0.1-1-0.4c-0.6-0.3-1.3-0.7-2.3-1.2c-1-0.5-1.9-1-2.7-1.5C18.3,26.7,17,26.1,15.3,25.3z M17.2,5.6
			c0,0.1,0,0.2,0,0.3c0,0.1,0,0.2,0,0.4c0,0.4-0.1,0.9-0.4,1.4s-0.6,1.1-1,1.6c-0.4,0.6-1,1.4-1.8,2.4c-0.8,1-1.5,2-2.2,2.9
			c3.1-0.6,5.7-1.1,7.8-1.7s3.9-1.1,5.3-1.6c1.4-0.5,2.4-1.1,3.1-1.7c0.7-0.6,1.1-1.2,1.1-1.9c0-0.7-0.7-1.3-2.2-1.7
			c-1.5-0.4-3.3-0.6-5.4-0.6c-0.4,0-0.9,0-1.4,0c-0.5,0-1.1,0.1-1.7,0.1C17.8,5.5,17.4,5.6,17.2,5.6z"/>
	</symbol>

	<symbol id="down-arrow" viewBox="0 0 18 24">
		<path d="M9,14L0,0l18,0L9,14z M18,10h-4l-5,8l-5-8H0l9,14L18,10z"/>
	</symbol>

	<symbol id="up-arrow" viewBox="0 0 18 24">
		<path d="M9,10l9,14H0L9,10z M0,14h4l5-8l5,8h4L9,0L0,14z"/>
	</symbol>

	<symbol id="twitter-icon" viewBox="0 0 24 24">
		<path d="M24 4.557c-.883.392-1.832.656-2.828.775 1.017-.609 1.798-1.574 2.165-2.724-.951.564-2.005.974-3.127 1.195-.897-.957-2.178-1.555-3.594-1.555-3.179 0-5.515 2.966-4.797 6.045-4.091-.205-7.719-2.165-10.148-5.144-1.29 2.213-.669 5.108 1.523 6.574-.806-.026-1.566-.247-2.229-.616-.054 2.281 1.581 4.415 3.949 4.89-.693.188-1.452.232-2.224.084.626 1.956 2.444 3.379 4.6 3.419-2.07 1.623-4.678 2.348-7.29 2.04 2.179 1.397 4.768 2.212 7.548 2.212 9.142 0 14.307-7.721 13.995-14.646.962-.695 1.797-1.562 2.457-2.549z"/>
	</symbol>

	<symbol id="linkedin-icon" viewBox="0 0 24 24">
		<path d="M4.98 3.5c0 1.381-1.11 2.5-2.48 2.5s-2.48-1.119-2.48-2.5c0-1.38 1.11-2.5 2.48-2.5s2.48 1.12 2.48 2.5zm.02 4.5h-5v16h5v-16zm7.982 0h-4.968v16h4.969v-8.399c0-4.67 6.029-5.052 6.029 0v8.399h4.988v-10.131c0-7.88-8.922-7.593-11.018-3.714v-2.155z"/>
	</symbol>

	<symbol id="github-icon" viewBox="0 0 24 24">
		<path d="M12 0c-6.626 0-12 5.373-12 12 0 5.302 3.438 9.8 8.207 11.387.599.111.793-.261.793-.577v-2.234c-3.338.726-4.033-1.416-4.033-1.416-.546-1.387-1.333-1.756-1.333-1.756-1.089-.745.083-.729.083-.729 1.205.084 1.839 1.237 1.839 1.237 1.07 1.834 2.807 1.304 3.492.997.107-.775.418-1.305.762-1.604-2.665-.305-5.467-1.334-5.467-5.931 0-1.311.469-2.381 1.236-3.221-.124-.303-.535-1.524.117-3.176 0 0 1.008-.322 3.301 1.23.957-.266 1.983-.399 3.003-.404 1.02.005 2.047.138 3.006.404 2.291-1.552 3.297-1.23 3.297-1.23.653 1.653.242 2.874.118 3.176.77.84 1.235 1.911 1.235 3.221 0 4.609-2.807 5.624-5.479 5.921.43.372.823 1.102.823 2.222v3.293c0 .319.192.694.801.576 4.765-1.589 8.199-6.086 8.199-11.386 0-6.627-5.373-12-12-12z"/>
	</symbol>

</svg>