<?xml version="1.0" encoding="utf-8"?>
<!-- Generator: Adobe Illustrator 19.1.0, SVG Export Plug-In . SVG Version: 6.00 Build 0)  -->
<svg version="1.1" id="Layer_1" xmlns="http://www.w3.org/2000/svg" xmlns:xlink="http://www.w3.org/1999/xlink" x="0px" y="0px"
	 viewBox="0 0 414.2 508.5" enable-background="new 0 0 414.2 508.5" xml:space="preserve">
<g>
	<path fill="#B7CE63" d="M414.1,0c0.1,5.8,0.3,11.7,0,17.5c-0.1,1.2-1.7,3.2-2.8,3.4c-31.9,4.6-60.3,17.5-85.9,36.6
		c-40.8,30.3-65.6,71.4-80.2,119.3c-10.5,34.5-14.6,70-15.8,105.9c-0.1,4,1.8,4.2,4.8,4.2c31.7-0.1,63.3,0,95,0c1.8,0,3.6,0,6.7,0
		c-56.3,74.2-111.9,147.7-168,221.7C111.9,434.6,56.2,361.2,0,286.9c35.9,0,70.8,0,106.3,0c0.6-9.5,1-18.6,1.8-27.6
		c5.7-62.1,25-118.7,67.9-165.5c33.7-36.8,75.7-60.5,122.7-75.6C328,8.7,358,3,388.7,0.8c1.5-0.1,2.9-0.6,4.3-0.8
		C400.1,0,407.1,0,414.1,0z M210,307c0-15.2-0.6-29.7,0.1-44.1c2-38.6,9.1-76.3,23-112.5c18.3-47.5,46.7-87.3,89.4-116.1
		c0.8-0.5,1.4-1.2,2.1-1.8c-0.2-0.5-0.5-1-0.7-1.6c-17.1,6.4-34.6,11.8-51.2,19.3C209.2,78.9,165,125.5,142.6,192
		c-11.6,34.5-15.8,70-15.7,106.2c0,2.8,0,5.6,0,9.1c-28.7,0-56.8,0-85.8,0c42.6,56.2,84.5,111.5,126.7,167.2
		c42.4-55.9,84.3-111.3,126.9-167.5C265.4,307,237.5,307,210,307z"/>
</g>
</svg>
