<?xml version="1.0" encoding="utf-8"?>
<!-- Generator: Adobe Illustrator 19.1.0, SVG Export Plug-In . SVG Version: 6.00 Build 0)  -->
<svg version="1.1" id="Layer_1" xmlns="http://www.w3.org/2000/svg" xmlns:xlink="http://www.w3.org/1999/xlink" x="0px" y="0px"
	 viewBox="0 0 83.6 54.2" enable-background="new 0 0 83.6 54.2" xml:space="preserve">
<g>
	<path fill="#FFFFFF" d="M2.7,52.7c-0.3,0.8-0.8,0.9-1.3,0.3c-1.2-1.3-2-3.8-0.8-8.3c2.1-7.6,10-23.6,17.4-35.1
		c-2.8-0.3-4.4-1.5-5.4-3.4c-0.4-0.8-0.2-1.3,0.9-1.4c7-0.8,13.3-4.3,18.9-4.5c4.3-0.2,8,1.1,10,6.8c1.8,5,0.6,10.1-2.6,14.4
		c-4.5,6-13.6,11.3-22.9,13.5c3.2,3.9,6.2,8,8,11.5c1.2,2.3,1.5,5.1,0.4,6.8c-0.4,0.7-0.8,0.9-1.3,0.2c-5.5-7.5-9.9-13-13.8-17.4
		C7.9,40.6,5.5,45.9,2.7,52.7z M19.9,18.6c-2.3,4-4.4,7.5-6.6,11.7c18.5-4.1,28-16.3,25.6-22.3C37,3.3,28.6,7.7,23.1,9.2
		C23.1,11.5,22.2,14.4,19.9,18.6z"/>
	<path fill="#FFFFFF" d="M71,30.2c1.9,0.8,2.9,2.3,3.3,3.7c0.2,0.7-0.1,1.1-0.9,0.9c-1.3-0.3-2.9-0.3-4.7-0.3
		C65.8,40,62.8,46,60.1,52.3c-0.3,0.8-0.9,0.9-1.4,0.2c-1.2-1.7-1.9-4.1-0.3-9.2c0.6-1.7,1.8-4.6,3.5-8c-6.1,0.8-12.6,1.8-16.5,1.8
		c-2.6,5.2-5.2,10.7-7.6,16.3c-0.3,0.8-1,1.1-1.5,0.3c-1.3-1.8-1.8-4.1-0.4-9.2c0.5-1.8,1.9-4.8,3.6-8.6c-1.8-0.8-2.5-2-2.9-2.7
		c-0.5-1-0.3-1.3,1.1-1.3c1.3,0.1,2.4,0.3,3.5,0.3C46.6,21.1,54.4,6.6,57.8,1.8c0.8-1,1.5-0.8,2,0.1c1.3,2.3,1,6.5-2.1,12.4
		c-2.4,4.7-5.9,10.6-9.6,17.6c5.8-0.8,11-2.2,16.5-2.5C70.1,18.5,77.5,5.2,80.8,0.8c0.8-1.1,1.6-1,2.1,0.1c1.2,2.4,0.9,6.4-2.6,12.7
		C77.8,18,74.6,23.7,71,30.2z"/>
</g>
<g>
	<path fill="#FFFFFF" d="M2.7,52.7c-0.3,0.8-0.8,0.9-1.3,0.3c-1.2-1.3-2-3.8-0.8-8.3c2.1-7.6,10-23.6,17.4-35.1
		c-2.8-0.3-4.4-1.5-5.4-3.4c-0.4-0.8-0.2-1.3,0.9-1.4c7-0.8,13.3-4.3,18.9-4.5c4.3-0.2,8,1.1,10,6.8c1.8,5,0.6,10.1-2.6,14.4
		c-4.5,6-13.6,11.3-22.9,13.5c3.2,3.9,6.2,8,8,11.5c1.2,2.3,1.5,5.1,0.4,6.8c-0.4,0.7-0.8,0.9-1.3,0.2c-5.5-7.5-9.9-13-13.8-17.4
		C7.9,40.6,5.5,45.9,2.7,52.7z M19.9,18.6c-2.3,4-4.4,7.5-6.6,11.7c18.5-4.1,28-16.3,25.6-22.3C37,3.3,28.6,7.7,23.1,9.2
		C23.1,11.5,22.2,14.4,19.9,18.6z"/>
	<path fill="#FFFFFF" d="M71,30.2c1.9,0.8,2.9,2.3,3.3,3.7c0.2,0.7-0.1,1.1-0.9,0.9c-1.3-0.3-2.9-0.3-4.7-0.3
		C65.8,40,62.8,46,60.1,52.3c-0.3,0.8-0.9,0.9-1.4,0.2c-1.2-1.7-1.9-4.1-0.3-9.2c0.6-1.7,1.8-4.6,3.5-8c-6.1,0.8-12.6,1.8-16.5,1.8
		c-2.6,5.2-5.2,10.7-7.6,16.3c-0.3,0.8-1,1.1-1.5,0.3c-1.3-1.8-1.8-4.1-0.4-9.2c0.5-1.8,1.9-4.8,3.6-8.6c-1.8-0.8-2.5-2-2.9-2.7
		c-0.5-1-0.3-1.3,1.1-1.3c1.3,0.1,2.4,0.3,3.5,0.3C46.6,21.1,54.4,6.6,57.8,1.8c0.8-1,1.5-0.8,2,0.1c1.3,2.3,1,6.5-2.1,12.4
		c-2.4,4.7-5.9,10.6-9.6,17.6c5.8-0.8,11-2.2,16.5-2.5C70.1,18.5,77.5,5.2,80.8,0.8c0.8-1.1,1.6-1,2.1,0.1c1.2,2.4,0.9,6.4-2.6,12.7
		C77.8,18,74.6,23.7,71,30.2z"/>
</g>
</svg>
